<svg xmlns:xlink="http://www.w3.org/1999/xlink" xmlns="http://www.w3.org/2000/svg" viewBox="0 0 218 47" width="218"  height="47" ><g fill="#FFFFFF" fill-rule="nonzero"><path d="M68.6 20c1.3-2.4 3.1-4.3 5.3-5.6s4.7-2 7.5-2 4.6.5 6.4 1.4c1.8 1 3.3 2.2 4.4 3.6v-4.5h6.5v31.2h-6.5v-4.6c-1.1 1.5-2.6 2.7-4.5 3.7s-4 1.5-6.5 1.5-5.1-.7-7.4-2.1c-2.2-1.4-4-3.3-5.3-5.8s-2-5.3-2-8.4.7-5.9 2-8.3zm22.2 2.8c-.9-1.6-2.1-2.8-3.5-3.6s-3-1.2-4.6-1.2-3.2.4-4.6 1.2-2.6 2-3.5 3.6-1.3 3.4-1.3 5.6.4 4 1.3 5.7c.9 1.6 2.1 2.9 3.5 3.7 1.5.9 3 1.3 4.6 1.3s3.2-.4 4.6-1.2 2.6-2 3.5-3.7c.9-1.6 1.3-3.5 1.3-5.6s-.4-4-1.3-5.6zM116.4 38.3l8.8-25.5h6.9L120.2 44h-7.7l-11.8-31.2h6.9zM132.8 20c1.3-2.4 3.1-4.3 5.3-5.6s4.7-2 7.5-2 4.6.5 6.4 1.4c1.8 1 3.3 2.2 4.4 3.6v-4.5h6.5v31.2h-6.5v-4.6c-1.1 1.5-2.6 2.7-4.5 3.7s-4 1.5-6.5 1.5-5.1-.7-7.4-2.1c-2.2-1.4-4-3.3-5.3-5.8s-2-5.3-2-8.4.7-5.9 2-8.3zm22.3 2.8c-.9-1.6-2.1-2.8-3.5-3.6s-3-1.2-4.6-1.2-3.2.4-4.6 1.2-2.6 2-3.5 3.6-1.3 3.4-1.3 5.6.4 4 1.3 5.7c.9 1.6 2.1 2.9 3.5 3.7 1.5.9 3 1.3 4.6 1.3s3.2-.4 4.6-1.2 2.6-2 3.5-3.7c.9-1.6 1.3-3.5 1.3-5.6s-.4-4-1.3-5.6zM191 13.9c1.9 1 3.5 2.5 4.6 4.5s1.6 4.4 1.6 7.3v18.4h-6.4V26.6c0-2.8-.7-4.9-2.1-6.4S185.4 18 183 18s-4.3.7-5.8 2.2c-1.4 1.5-2.1 3.6-2.1 6.4v17.5h-6.5V12.9h6.5v3.6c1.1-1.3 2.4-2.3 4.1-3 1.6-.7 3.4-1.1 5.2-1.1s4.7.5 6.6 1.5M210.1 18.1v17.3c0 1.2.3 2 .8 2.5s1.5.8 2.8.8h4v5.4h-5.1c-2.9 0-5.1-.7-6.7-2-1.6-1.4-2.3-3.6-2.3-6.6V18.2h-3.7v-5.3h3.7V5.1h6.5v7.8h7.6v5.3h-7.6zM45.7 25.3v8.4L26.5.2 0 46.4h8.3l7.9-13.9h15.9l-4.2-7.2h-7.5l6.1-10.6 18.2 31.7h8.4V25.3z" fill="#FFFFFF"></path></g></svg>