<?xml version="1.0" encoding="UTF-8"?>
<svg id="Layer_2" xmlns="http://www.w3.org/2000/svg" xmlns:xlink="http://www.w3.org/1999/xlink" version="1.1" viewBox="63 36 946 264">
  <!-- Generator: Adobe Illustrator 29.4.0, SVG Export Plug-In . SVG Version: 2.1.0 Build 152)  -->
  <defs>
    <style>
      .st0, .st1 {
        fill: none;
      }

      .st2 {
        fill: url(#Sfumatura_senza_nome1);
      }

      .st3 {
        fill: #3d3652;
      }

      .st1 {
        stroke: #fff;
        stroke-miterlimit: 10;
      }

      .st4 {
        fill: url(#Sfumatura_senza_nome_21);
      }

      .st5 {
        fill: #fff;
      }

      .st6 {
        fill: #0a101d;
      }

      .st7 {
        fill: #303fb1;
      }

      .st8 {
        fill: url(#Sfumatura_senza_nome);
      }

      .st9 {
        fill: url(#Sfumatura_senza_nome_4);
      }

      .st10 {
        fill: url(#Sfumatura_senza_nome_2);
      }
    </style>
    <linearGradient id="Sfumatura_senza_nome" data-name="Sfumatura senza nome" x1="894.4" y1="5441.4" x2="1334.6" y2="5881.6" gradientTransform="translate(0 338) scale(1 -1)" gradientUnits="userSpaceOnUse">
      <stop offset="0" stop-color="#b090f5"/>
      <stop offset="1" stop-color="#5fbfff"/>
    </linearGradient>
    <linearGradient id="Sfumatura_senza_nome_2" data-name="Sfumatura senza nome 2" x1="674.7" y1="5666.4" x2="1114.9" y2="6106.6" gradientTransform="translate(0 338) scale(1 -1)" gradientUnits="userSpaceOnUse">
      <stop offset="0" stop-color="#68d7fa"/>
      <stop offset="1" stop-color="#7ef1b3"/>
    </linearGradient>
    <linearGradient id="Sfumatura_senza_nome1" data-name="Sfumatura senza nome" x1="149.1" y1="29.9" x2="334.6" y2="215.3" xlink:href="#Sfumatura_senza_nome"/>
    <linearGradient id="Sfumatura_senza_nome_21" data-name="Sfumatura senza nome 2" x1="56.5" y1="124.6" x2="242" y2="310.2" xlink:href="#Sfumatura_senza_nome_2"/>
    <linearGradient id="Sfumatura_senza_nome_4" data-name="Sfumatura senza nome 4" x1="2961.7" y1="5884.5" x2="3442.1" y2="5592.6" gradientTransform="translate(0 338) scale(1 -1)" gradientUnits="userSpaceOnUse">
      <stop offset="0" stop-color="#616ecf"/>
      <stop offset="1" stop-color="#4356c9"/>
    </linearGradient>
  </defs>
  <path class="st8" d="M1276.2-5591l-13.5-23.7c-3.8-6.7-12.3-9-18.9-5.2-1.1.6-2.1,1.4-3,2.3l-31,31c-4.7,4.7-5.4,12-1.7,17.6,11.3,17.3,20.4,35.9,27,55.5h0c42.9,127.3-25.5,265.3-152.9,308.2-25,8.4-51.2,12.7-77.6,12.7-39.7.1-78.9-9.6-114-28.3l52.5-52.5c89.7,33.9,190-11.3,224-101,16.9-44.6,14.7-94.2-6.1-137.1-3.3-6.9-11.6-9.8-18.5-6.5-1.4.7-2.7,1.6-3.8,2.7l-31.4,31.2c-3.4,3.4-4.8,8.3-3.7,13l2.7,11.3c13.2,56-21.6,112.1-77.6,125.3-25.6,6-52.6,2.1-75.5-10.9l-13.8-7.9c-5.4-3.1-12.3-2.2-16.7,2.2l-128.2,128.1c-5.4,5.4-5.4,14.2,0,19.6.4.4.9.8,1.4,1.2l18.9,14.5c54.5,42,121.3,64.6,190.1,64.4,172.8-.2,312.7-140.5,312.5-313.3,0-54.1-14.2-107.3-41-154.4Z"/>
  <path class="st10" d="M1194.7-5684.2c-54.4-42-121.3-64.6-190.1-64.4-172.8.1-312.8,140.3-312.6,313.1,0,54.3,14.2,107.6,41.1,154.7l13.5,23.7c3.8,6.7,12.3,9,19,5.2,1.1-.6,2-1.4,2.9-2.2l31-31c4.6-4.7,5.4-12,1.7-17.5-11.3-17.3-20.4-35.9-27-55.5h0c-42.9-127.3,25.5-265.3,152.9-308.2,25-8.4,51.2-12.7,77.6-12.7,39.7,0,78.9,9.7,114,28.4l-52.5,52.5c-89.7-34-190,11.2-224,100.9-7.5,19.7-11.3,40.6-11.3,61.6,0,2.9.8,16,1,18.3,2.1,19.9,7.7,39.3,16.4,57.4,3.3,6.9,11.6,9.8,18.6,6.5,1.4-.7,2.7-1.6,3.8-2.7l31.4-31.4c3.4-3.4,4.8-8.3,3.7-13l-2.7-11.3c-13.2-56,21.5-112.1,77.5-125.3,25.7-6,52.6-2.1,75.5,10.9l13.8,7.9c5.4,3.1,12.3,2.2,16.7-2.2l128.1-128.1c5.4-5.4,5.4-14.2,0-19.7-.4-.4-.9-.8-1.4-1.2l-18.8-14.5Z"/>
  <path class="st2" d="M310,102.7l-5.7-10c-1.6-2.8-5.2-3.8-8-2.2-.5.3-.9.6-1.2,1l-13.1,13.1c-2,2-2.3,5.1-.7,7.4,4.8,7.3,8.6,15.1,11.4,23.4h0c18.1,53.7-10.8,111.8-64.4,129.9-10.5,3.6-21.6,5.4-32.7,5.4-16.8,0-33.3-4.1-48-11.9l22.1-22.1c37.8,14.3,80.1-4.8,94.4-42.6,7.1-18.8,6.2-39.7-2.6-57.8-1.4-2.9-4.9-4.1-7.8-2.7-.6.3-1.1.7-1.6,1.1l-13.2,13.1c-1.4,1.4-2,3.5-1.6,5.5l1.1,4.8c5.5,23.6-9.1,47.2-32.7,52.8-10.8,2.5-22.2.9-31.8-4.6l-5.8-3.3c-2.3-1.3-5.2-.9-7,.9l-54,54c-2.3,2.3-2.3,6,0,8.3.2.2.4.4.6.5l8,6.1c22.9,17.7,51.1,27.2,80.1,27.1,72.8,0,131.8-59.2,131.7-132,0-22.8-6-45.2-17.3-65.1Z"/>
  <path class="st4" d="M275.7,63.4c-22.9-17.7-51.1-27.2-80.1-27.2-72.8,0-131.8,59.1-131.8,132,0,22.9,6,45.3,17.3,65.2l5.7,10c1.6,2.8,5.2,3.8,8,2.2.4-.3.9-.6,1.2-.9l13-13c2-2,2.3-5.1.7-7.4-4.8-7.3-8.6-15.1-11.4-23.4h0c-18.1-53.7,10.8-111.8,64.4-129.9,10.5-3.6,21.6-5.4,32.7-5.4,16.8,0,33.2,4.1,48,12l-22.1,22.1c-37.8-14.3-80.1,4.7-94.4,42.5-3.1,8.3-4.8,17.1-4.8,26,0,1.2.3,6.8.4,7.7.9,8.4,3.2,16.6,6.9,24.2,1.4,2.9,4.9,4.1,7.8,2.7.6-.3,1.1-.7,1.6-1.1l13.2-13.2c1.4-1.4,2-3.5,1.6-5.5l-1.1-4.8c-5.6-23.6,9.1-47.2,32.7-52.8,10.8-2.5,22.2-.9,31.8,4.6l5.8,3.3c2.3,1.3,5.2.9,7-.9l54-54c2.3-2.3,2.3-6,0-8.3-.2-.2-.4-.3-.6-.5l-7.9-6.1Z"/>
  <g>
    <path class="st3" d="M484.5,199.8c-1.8-1.5-4.4-1.4-6.1.1-7.5,5.8-16.1,11.1-28.7,11.1-23.1,0-41.9-19.5-41.9-43.4s18.7-43.6,41.8-43.6,20.8,4.2,28.7,11.2c.9,1.1,2.2,1.6,3.6,1.6,1.2,0,2.3-.7,3-1.7l7.5-7.7c1-.9,1.5-2.2,1.5-3.6,0-1.4-.7-2.6-1.7-3.5-13.1-11.4-26.3-16.5-42.8-16.5-35.2,0-63.8,28.8-63.8,64.2,0,35.3,28.6,63.8,63.8,63.9,16.1.2,31.5-6,43-17.3,1-1,1.6-2.4,1.5-3.9,0-1.1-.5-2.2-1.4-3l-8-7.9Z"/>
    <path class="st3" d="M539.2,105.5h-11.4c-2.6,0-4.8,2.2-4.8,4.8v115c0,2.6,2.2,4.8,4.8,4.9h11.4c2.6,0,4.8-2.2,4.8-4.9v-115c0-2.6-2.2-4.8-4.8-4.8Z"/>
    <path class="st3" d="M674,144.2c0-21.3-17.6-38.7-39.2-38.7h-47c-2.7,0-4.8,2.2-4.8,4.8v115c0,2.7,2.2,4.8,4.8,4.9h11.2c2.6,0,4.8-2.2,4.8-4.9v-42.8h23.5l22.6,45.2c.8,1.5,2.4,2.4,4.2,2.4h13.5c1.7,0,3.4-.8,4.3-2.3.9-1.6.9-3.4,0-5l-22.9-42.6c15.5-6.9,25-20.5,25-36ZM653,144.6c0,10.8-8.9,20-19.5,20h-29.2v-39.1h29.2c10.6,0,19.5,8.8,19.5,19.1h0Z"/>
    <path class="st3" d="M796.6,199.8c-1.8-1.5-4.4-1.4-6.1.1-7.5,5.8-16.1,11.1-28.7,11.1-23.1,0-41.9-19.5-41.9-43.4s18.7-43.6,41.8-43.6,20.8,4.2,28.8,11.2c.9,1.1,2.3,1.7,3.6,1.6,1.2,0,2.3-.7,3-1.7l7.5-7.7c1-.9,1.5-2.2,1.5-3.6,0-1.4-.7-2.7-1.7-3.5-13.1-11.4-26.3-16.5-42.8-16.5-35.2,0-63.8,28.8-63.8,64.2,0,35.3,28.6,63.8,63.8,63.9,16.1.2,31.5-6,43-17.3,1-1,1.6-2.4,1.5-3.9,0-1.1-.5-2.2-1.4-3l-8.1-7.9Z"/>
    <path class="st3" d="M901.3,210.9h-45.2v-100.6c0-2.6-2.2-4.8-4.8-4.8h-11.4c-2.7,0-4.8,2.2-4.8,4.8v115c0,2.7,2.2,4.8,4.8,4.9h61.4c2.7,0,4.8-2.2,4.8-4.9h0v-9.6c0-2.7-2.1-4.9-4.8-4.9,0,0,0,0,0,0Z"/>
    <path class="st3" d="M1003.7,125c2.7,0,4.8-2.2,4.8-4.8v-9.7c0-2.7-2.2-4.8-4.8-4.8h-69c-2.7,0-4.8,2.2-4.8,4.8v115c0,2.7,2.2,4.8,4.8,4.9h69c2.7,0,4.8-2.2,4.8-4.9v-9.6c0-2.7-2.2-4.8-4.8-4.9h-53v-34.3h44.5c2.7,0,4.8-2.2,4.8-4.9v-9.7c0-2.6-2.2-4.8-4.8-4.9h-44.5v-32.3h53Z"/>
  </g>
  <g>
    <path class="st3" d="M524.4-4824c-4.1-3.3-9.9-3.2-13.8.3-16.9,13.1-36.4,25.2-65,25.2-52.3,0-94.9-44.1-94.9-98.3s42.4-98.7,94.6-98.7,47.1,9.5,65.1,25.3c2.1,2.4,5.1,3.7,8.2,3.7,2.7-.2,5.2-1.6,6.8-3.8l17-17.5c2.2-2.1,3.4-5.1,3.3-8.1-.1-3.1-1.5-6-3.9-8-29.7-25.9-59.6-37.4-96.9-37.4-79.7,0-144.5,65.3-144.5,145.5,0,79.8,64.7,144.5,144.5,144.7,36.4.4,71.4-13.7,97.4-39.2,2.3-2.3,3.5-5.5,3.4-8.7,0-2.6-1.2-5-3.1-6.8l-18.1-18Z"/>
    <path class="st3" d="M648.3-5037.5h-25.8c-6,.2-10.8,5-10.9,11v260.4c.2,6,5,10.8,10.9,11h25.8c6-.2,10.8-5,10.9-11v-260.4c-.2-6-5-10.8-10.9-11Z"/>
    <path class="st3" d="M953.5-4949.8c0-48.3-39.8-87.6-88.7-87.6h-106.3c-6,0-10.9,4.9-10.9,11v260.4c0,6.1,4.9,11,10.9,11h25.4c6-.2,10.8-5,10.9-11v-96.8h53.3l51.1,102.2c1.9,3.4,5.5,5.5,9.4,5.5h30.5c3.9.1,7.6-1.8,9.7-5.2,2-3.5,2-7.8,0-11.3l-51.8-96.5c35-15.6,56.6-46.5,56.6-81.6ZM905.8-4949c0,24.5-20.2,45.3-44.2,45.3h-66.1v-88.6h66c24,0,44.2,19.8,44.2,43.3h0Z"/>
    <path class="st3" d="M1231-4824c-4.1-3.3-9.9-3.2-13.8.3-16.9,13.1-36.4,25.2-65,25.2-52.3,0-94.9-44.1-94.9-98.3s42.4-98.7,94.5-98.7,47.1,9.5,65.1,25.3c2.1,2.4,5.1,3.8,8.3,3.7,2.7-.2,5.2-1.6,6.8-3.8l17-17.5c2.2-2.1,3.4-5.1,3.3-8.1-.1-3.1-1.5-6-3.9-8-29.7-25.9-59.5-37.4-96.9-37.4-79.7,0-144.5,65.3-144.5,145.4,0,79.8,64.7,144.5,144.5,144.7,36.4.4,71.4-13.7,97.4-39.2,2.3-2.3,3.5-5.5,3.4-8.7,0-2.6-1.2-5-3.1-6.8l-18.2-18Z"/>
    <path class="st3" d="M1468.2-4798.8h-102.3v-227.7c-.2-6-5-10.8-10.9-11h-25.8c-6,0-10.9,4.9-10.9,11v260.4c0,6.1,4.9,11,10.9,11h139.1c6.1,0,11-4.9,11-11h0v-21.6c0-6.1-4.8-11-10.9-11.1,0,0,0,0,0,0Z"/>
    <path class="st3" d="M1699.9-4993.4c6,0,10.9-4.9,10.9-11v-22c0-6-4.9-11-10.9-11h-156.2c-6,0-10.9,4.9-10.9,11v260.4c0,6.1,4.9,11,10.9,11h156.2c6.1,0,10.9-4.9,10.9-11v-21.6c0-6-4.9-11-10.9-11h-120v-77.7h100.8c6.1,0,11-4.9,11-11v-22c-.2-6-5-10.8-11-11h-100.7v-73.1h119.9Z"/>
  </g>
  <g>
    <path class="st5" d="M1001.1-4596.6c-24.9-21.2-71.4-21.5-95.8.6-37.3,33.7-37.1,123,5.8,152.4,21.6,14.8,58.4,15.5,81,2.5,16.3-9.4,26.5-26,32-43.7l34.6,9.3c-9.9,34.9-37,63.5-72.5,72.4-23.4,5.9-55.4,4.8-78-4.1-64.2-25.3-78.5-110.7-57.1-169.4,19.4-53.2,70.3-75.6,124.6-67,40.9,6.5,70.7,34.7,82.8,73.8l-1.6,1.5-32.5,8.6c-2.4-4.6-3.7-10.1-6-14.9-4.1-8.3-10.2-16.1-17.2-22.1Z"/>
    <path class="st5" d="M785.7-4618.7c10.7,9.6,19.8,23.1,25.5,36.3.8,1.9,4.6,11.4,4.4,12.6s-.2.9-.6,1.1l-33.2,9c-1.8-.6-1.3-2.4-1.8-3.8-11.3-29.7-29.8-46.7-62.7-48.9-52.1-3.5-78.9,32.5-81.6,81.1-3,53.9,19.1,101.3,79.5,99.3,30.8-1,52-16.8,63.3-45,.8-2.1,1.7-7.5,3.7-7.6,3.8,1.4,32.7,7.8,33.2,9.5s-4.7,14-5.9,16.5c-24.7,53-86.3,71.4-140,52.9-73.9-25.4-88.6-133.7-50.3-193.1,34.8-54,119.5-62.1,166.3-19.9Z"/>
    <path class="st5" d="M1298.9-4639.5l1.9-.9c35.6,2.1,74.9-3.3,109.9,1.2,51.3,6.5,71.5,58.4,56.4,104.2-19.5,59.1-83.2,44.1-131.7,45.9l-1.9.9v83c0,.7-1.7,1.3-2.4,1.4-6.3.9-22.5.5-29.2,0-1.1,0-2-.3-3-.6v-235ZM1333.5-4521.6h67.9c13.9,0,27.4-11.5,32-24.1,10.3-28.5-3.6-62.1-36.9-62.2h-63v86.3Z"/>
    <path class="st5" d="M1269.8-4608.5l-78.6,1.4v201.8c0,0-1.3,1.4-1.4,1.4h-32.4l-.8-.8v-202.3l-.8-.8h-77l-.8-.8v-30.2c0-.2.7-.8.5-1.4h190c0,0,1.4,1.3,1.4,1.4v30.5Z"/>
  </g>
  <g>
    <polygon class="st9" points="2886.6 -5583.6 2886.6 -5259.2 3167.2 -5098.8 3448.7 -5257.3 3448.7 -5583.6 3167.6 -5746.7 2886.6 -5583.6"/>
    <polygon class="st5" points="2886.6 -5524.4 3015.2 -5449.8 3015.2 -5511.3 3064.6 -5539.3 2938.4 -5613.6 2886.6 -5583.6 2886.6 -5524.4"/>
    <polygon class="st5" points="3395.5 -5227.4 3218.4 -5333.3 3218.4 -5392 3269.7 -5422.8 3448.7 -5318.3 3448.7 -5257.3 3395.5 -5227.4"/>
    <polygon class="st6" points="3091.2 -5377.1 3016.6 -5333.3 3015.7 -5510.4 3168.1 -5597.1 3168.1 -5509.5 3091.9 -5465.2 3091.2 -5377.1"/>
    <polygon class="st6" points="3268.6 -5302.6 3168.1 -5245.7 3168.1 -5421.9 3319.6 -5507.6 3319.6 -5393 3270.2 -5421.9 3218.9 -5391.1 3218.9 -5332.4 3268.6 -5302.6"/>
    <polygon class="st5" points="3243.9 -5552.4 3243.9 -5464.8 3168.1 -5421.9 3168.1 -5333.3 3091.9 -5288.6 3091.9 -5465.2 3243.9 -5552.4"/>
  </g>
  <g>
    <path class="st5" d="M2281.2-4921.6c-2.8-77.1,57.5-143,134.6-145.8h5.6c71.5,0,113.5,42,126.2,91.2l-44.9,15.4c-8.4-37.9-43.5-64.5-81.3-61.7-46.3,0-92.5,33.6-92.5,102.4s44.9,100.9,93.9,100.9,72.9-23.9,82.8-61.7l43.5,14c-15.4,57.5-68.7,95.4-127.6,92.5-77.1,1.4-140.2-60.3-141.7-136v-9.8l1.4-1.4h0Z"/>
    <path class="st5" d="M2636-4781.4h-46.3v-287.5h46.3v112.2c14-15.4,33.6-25.3,54.7-23.9,47.6,0,70.1,33.6,70.1,77.1v122h-44.9v-113.5c2.8-19.6-11.2-39.3-30.9-42h-8.4c-22.4,0-40.6,18.3-40.6,40.6h0v115Z"/>
    <path class="st5" d="M2864.5-4892.2l49.1-7c11.2-1.4,14-7,14-14,0-16.9-11.2-29.4-36.5-29.4-19.6-1.4-37.9,12.6-39.3,33.6h0c0,1.4-42-7-42-7,2.8-33.6,33.6-63.1,81.3-63.1s81.3,33.6,81.3,72.9v95.4c0,9.8,0,21,2.8,30.9h-42c-1.4-8.4-2.8-16.9-1.4-25.3-12.6,19.6-35,32.3-58.9,30.9-33.6,2.8-63.1-22.4-65.9-54.7v-2.8c0-35,25.3-54.7,57.5-58.9v-1.4h0ZM2927.6-4861.3v-8.4l-50.5,7c-14,0-25.3,12.6-25.3,26.6s11.2,25.3,25.3,25.3h2.8c23.9,2.8,44.9-15.4,47.6-39.3h0v-11.2h0Z"/>
    <path class="st5" d="M3051-5071.6c16.9,0,30.9,12.6,30.9,29.4h0c0,16.9-14,29.4-29.4,29.4s-29.4-14-29.4-29.4,12.6-29.4,29.4-29.4h-1.4,0ZM3028.6-4780v-193.5h46.3v193.5h-46.3Z"/>
    <path class="st5" d="M3180-4781.4h-46.3v-193.5h44.9v25.3c11.2-19.6,33.6-32.3,57.5-30.9,47.6,0,70.1,33.6,70.1,77.1v122h-46.3v-113.5c0-23.9-11.2-43.5-39.3-43.5s-40.6,18.3-40.6,40.6h0v116.4h0Z"/>
    <path class="st5" d="M3360.9-4781.4v-287.5h46.3v287.5h-46.3Z"/>
    <path class="st5" d="M3489.9-5071.6c16.9,0,29.4,12.6,29.4,29.4s-12.6,29.4-29.4,29.4-29.4-12.6-29.4-29.4h0c0-16.9,14-29.4,29.4-29.4ZM3466.1-4780v-193.5h44.9v193.5h-44.9Z"/>
    <path class="st5" d="M3617.5-4781.4h-46.3v-193.5h44.9v25.3c11.2-19.6,33.6-32.3,57.5-30.9,47.6,0,70.1,33.6,70.1,77.1v122h-46.3v-113.5c2.8-19.6-11.2-39.3-30.9-42h-8.4c-22.4,0-40.6,18.3-40.6,40.6v116.4-1.4h0Z"/>
    <path class="st5" d="M3900.7-4893.5l81.3,112.2h-56.1l-56.1-79.9-23.9,25.3v53.3h-44.9v-287.5h44.9v172.4l74.3-78.5h61.7l-79.9,81.3-1.4,1.4h0Z"/>
  </g>
  <g>
    <path class="st7" d="M2936.3-4603.4c-18.3,8-35.8,11.8-52.7,16.6-8.9-6.2-9.6-16.2-14.5-23.8-14.8-23-36.2-33.4-62.5-36.1-92.5-9.6-123.4,82.4-104,142.4,21.3,66,110.9,83.9,155.2,42.1,11.5-10.8,18.2-24.1,25.8-38.8,19.1,2.7,37.5,7.3,55.1,15.7-3.7,22.9-17.7,37.7-30,54.6-19.7,27.1-45.7,40.1-76.2,46.6-98.4,20.8-182.4-38.6-196.3-128.6-6.5-41.6-1.1-80.8,19.9-116,27.9-47,70.7-73.3,126.4-76.9,40.1-2.6,77.2,5,109.4,30.4,23.4,18.5,38.3,42,44.4,71.9h0Z"/>
    <path class="st7" d="M3263.3-4488.1c1.1,35.3-33.2,77.7-75.4,94-4.7,2.3-9.3,4-13.7,5.1h-.1c-29.1,11.4-73.2,10.1-102.2.7l-3.3-1c-.9-.3-1.8-.5-2.7-.7-4.7-1.1-5.3-1.1-12.3-4.1-53.2-23.5-83-65.1-90.2-121.7-3.3-25.4-2.9-51.6,4.2-77.1,19.1-68.8,86.5-113.3,149.4-113.1,46.5.1,87.1,11.5,119,47,13.9,15.4,24.1,32.9,28.9,54.6-16.8,9.5-35.6,12-51.7,17.6-8.9-1.5-7.4-8.5-9.8-12.8-17.3-31.5-42.8-46-79.6-47.7-47-2.1-86,31.1-93.8,68-10.8,51.3-4.6,97.3,39.7,125.5,45.6,29,107.9,14.1,134.4-33.1,2.2-3.9,3-8.7,10.5-13,6-2.3,14.3,2.3,22.9,4.9,8.6,2.6,17.4,4.7,25.8,7h0Z"/>
    <path class="st7" d="M3495.1-4503.2v116.3h-58.8v-309.6c8.4-5.1,16.2-3.7,23.7-3.7,31.3-.3,62.6-.9,93.9,0,31.5.9,59.6,10.2,80.6,35.8,25.6,31.1,26,66.4,14,101.1-10.5,30.2-34.9,47.7-67.2,55-27.9,6.4-56.1,1.1-86.2,5.1h0ZM3497.3-4646.6v88.8c23.6,3.4,45.5,3.3,67.1-1.8,20.6-4.9,31-21.2,30.3-44.8-.7-22.4-13.6-37.5-34.6-41.8-20.5-4.2-40.8,1-62.8-.5h0Z"/>
    <path class="st7" d="M3369.6-4386.6h-57.6v-311.6c19.4-4.4,37.9-2,57.6-1.3v312.9Z"/>
  </g>
  <g>
    <polygon class="st5" points="3258.6 -3688.3 3258.6 -3602.3 3184.3 -3560.1 3184.3 -3473.2 3109.4 -3429.3 3109.4 -3602.7 3258.6 -3688.3"/>
    <g>
      <polyline class="st5" points="2908.1 -3660.8 2908.1 -3718.1 2958.9 -3747.6 2959.6 -3748 3184.1 -3878.3 3460 -3718.1 3460 -3459.5 3332.8 -3533.3 3332.8 -3644.4 3258.4 -3602.3 3258.4 -3688.4 3109.2 -3602.8 3184.1 -3646.3 3184.1 -3732.3 3082.8 -3674.7 3082.2 -3675 3034.4 -3647.9 3034.4 -3647.2 3035.3 -3473.3 3108.5 -3516.3 3109.2 -3602.8 3111.3 -3432.1 3184.1 -3473.3 3184.1 -3387.2 3281.5 -3442.5 3281.5 -3442.5 3407.1 -3368.7 3183.6 -3242.2 2908.1 -3399.6 2908.1 -3660"/>
      <polygon class="st5" points="3082.8 -3674.7 3034.4 -3647.2 3082.9 -3674.6 3082.8 -3674.7"/>
      <line class="st0" x1="3332.8" y1="-3531.9" x2="3332.8" y2="-3531.9"/>
      <polygon class="st5" points="3258.4 -3602.3 3258.4 -3602.3 3184.1 -3560.2 3258.4 -3602.3"/>
    </g>
    <g>
      <line class="st1" x1="3280.6" y1="-3444.4" x2="3034.4" y2="-3587.5"/>
      <line class="st1" x1="3233.9" y1="-3530.8" x2="3034.4" y2="-3647.2"/>
      <line class="st1" x1="3283.8" y1="-3560.1" x2="3082.6" y2="-3674.8"/>
    </g>
    <g>
      <polygon class="st5" points="3234.2 -3530.3 3234.2 -3471.4 3408.1 -3369 3460.1 -3398.2 3234.2 -3530.3"/>
      <polygon class="st5" points="3283.8 -3560.4 3234.2 -3530.6 3234.6 -3530.8 3460.3 -3398.6 3460.3 -3458.3 3283.8 -3560.4"/>
    </g>
  </g>
  <path d="M5335.2-5248.1c-18.5,32.2-52.8,52-89.9,52h-60.1v-202.4l-86.6,150.5c-18.5,32.2-52.8,52.1-89.9,52h-59.6v-298.8h119.9v201.9l116.2-201.8h0c0,0,119.9,0,119.9,0v202.8l126-218.8c5.1-8.9,4.9-19.9-.5-28.6-58.1-91.7-161.1-152.2-278.1-150.5-178.4,2.8-319,146.4-318.1,324.8.9,177.6,145.3,321.3,323.1,321.3s323.1-144.6,323.1-323.1-3.8-56.6-10.9-83.2c-1.3-5-6.4-7.9-11.4-6.6-2.4.6-4.4,2.2-5.7,4.3l-117.5,204.2s0,0,0,0Z"/>
  <path class="st5" d="M5658-4934.8h-82.8c-31.8,0-57.6,25-57.6,55.9v48.7c0,30.9,25.8,55.9,57.6,55.9h84.8c30.9-1.1,55.7-25.7,55.7-55.9v-48.7c0-30.9-25.8-55.9-57.6-55.9h0ZM5649.1-4800.9h-65v-107.2h65v107.2ZM4737.9-4934.8h-82.8c-31.8,0-57.6,25-57.6,55.9v48.7c0,30.9,25.8,55.9,57.6,55.9h84.8c30.9-1.1,55.7-25.7,55.7-55.9v-48.7c0-30.9-25.8-55.9-57.6-55.9h0ZM4729-4800.9h-65v-107.2h65v107.2ZM5201.5-4906.8l-48.1,80.9v-108.9h-33.3c-20.6,0-39.6,10.7-49.9,28l-69.7,117.2-30.7-51.6c22-.3,39.8-17.7,39.8-39.1v-15.3c0-21.6-18.1-39.2-40.3-39.2h-157.7v160.6h66.6v-67h14.9l39.8,67h89.3l64.8-109v109h66.6c0,0,64.5-108.6,64.5-108.6v108.6h66.6v-160.6h-33.1c-20.6,0-39.6,10.7-49.9,28h0ZM4943.1-4867.8h-65v-40.3h65v40.3ZM5434.6-4867.8h-65v-67h-66.6v160.6h66.6v-67h65v67h66.6v-160.6h-66.6v67ZM5798.6-4934.8h-66.6v104.7c0,30.9,25.8,55.9,57.6,55.9h94.8v-26.7h-85.9v-133.9ZM6083.3-4908.1v-26.7h-181.6v160.6h181.6v-26.7h-115.1v-40.3h91.1v-26.7h-91.1v-40.3h115.1ZM4579.1-4934.8l-64.8,109v-109h-66.6c0,0-64.5,108.6-64.5,108.6v-108.6h-66.6v160.6h33.1c20.6,0,39.6-10.7,49.9-28l48.1-80.9v108.9h33.3c20.6,0,39.6-10.7,49.9-28l78.9-132.6h-30.7Z"/>
  <path class="st5" d="M1312.2-3702.9l-13.5-23.7c-3.8-6.7-12.3-9-18.9-5.2-1.1.6-2.1,1.4-3,2.3l-31,31c-4.7,4.7-5.4,12-1.7,17.6,11.3,17.3,20.4,35.9,27,55.5h0c42.9,127.3-25.5,265.3-152.9,308.2-25,8.4-51.2,12.7-77.6,12.7-39.7.1-78.9-9.6-114-28.3l52.5-52.5c89.7,33.9,190-11.3,224-101,16.9-44.6,14.7-94.2-6.1-137.1-3.3-6.9-11.6-9.8-18.5-6.5-1.4.7-2.7,1.6-3.8,2.7l-31.4,31.2c-3.4,3.4-4.8,8.3-3.7,13l2.7,11.3c13.2,56-21.6,112.1-77.6,125.3-25.6,6-52.6,2.1-75.5-10.9l-13.8-7.9c-5.4-3.1-12.3-2.2-16.7,2.2l-128.2,128.1c-5.4,5.4-5.4,14.2,0,19.6.4.4.9.8,1.4,1.2l18.9,14.5c54.5,42,121.3,64.6,190.1,64.4,172.8-.2,312.7-140.5,312.5-313.3,0-54.1-14.2-107.3-41-154.4Z"/>
  <path class="st5" d="M1230.6-3796.1c-54.4-42-121.3-64.6-190.1-64.4-172.8.1-312.8,140.3-312.6,313.1,0,54.3,14.2,107.6,41.1,154.7l13.5,23.7c3.8,6.7,12.3,9,19,5.2,1.1-.6,2-1.4,2.9-2.2l31-31c4.6-4.7,5.4-12,1.7-17.5-11.3-17.3-20.4-35.9-27-55.5h0c-42.9-127.3,25.5-265.3,152.9-308.2,25-8.4,51.2-12.7,77.6-12.7,39.7,0,78.9,9.7,114,28.4l-52.5,52.5c-89.7-34-190,11.2-224,100.9-7.5,19.7-11.3,40.6-11.3,61.6,0,2.9.8,16,1,18.3,2.1,19.9,7.7,39.3,16.4,57.4,3.3,6.9,11.6,9.8,18.6,6.5,1.4-.7,2.7-1.6,3.8-2.7l31.4-31.4c3.4-3.4,4.8-8.3,3.7-13l-2.7-11.3c-13.2-56,21.5-112.1,77.5-125.3,25.7-6,52.6-2.1,75.5,10.9l13.8,7.9c5.4,3.1,12.3,2.2,16.7-2.2l128.1-128.1c5.4-5.4,5.4-14.2,0-19.7-.4-.4-.9-.8-1.4-1.2l-18.8-14.5Z"/>
  <g>
    <path class="st5" d="M560.3-2935.8c-4.1-3.3-9.9-3.2-13.8.3-16.9,13.1-36.4,25.2-65,25.2-52.3,0-94.9-44.1-94.9-98.3s42.4-98.7,94.6-98.7,47.1,9.5,65.1,25.3c2.1,2.4,5.1,3.7,8.2,3.7,2.7-.2,5.2-1.6,6.8-3.8l17-17.5c2.2-2.1,3.4-5.1,3.3-8.1-.1-3.1-1.5-6-3.9-8-29.7-25.9-59.6-37.4-96.9-37.4-79.7,0-144.5,65.3-144.5,145.5,0,79.8,64.7,144.5,144.5,144.7,36.4.4,71.4-13.7,97.4-39.2,2.3-2.3,3.5-5.5,3.4-8.7,0-2.6-1.2-5-3.1-6.8l-18.1-18Z"/>
    <path class="st5" d="M684.2-3149.3h-25.8c-6,.2-10.8,5-10.9,11v260.4c.2,6,5,10.8,10.9,11h25.8c6-.2,10.8-5,10.9-11v-260.4c-.2-6-5-10.8-10.9-11Z"/>
    <path class="st5" d="M989.4-3061.7c0-48.3-39.8-87.6-88.7-87.6h-106.3c-6,0-10.9,4.9-10.9,11v260.4c0,6.1,4.9,11,10.9,11h25.4c6-.2,10.8-5,10.9-11v-96.8h53.3l51.1,102.2c1.9,3.4,5.5,5.5,9.4,5.5h30.5c3.9.1,7.6-1.8,9.7-5.2,2-3.5,2-7.8,0-11.3l-51.8-96.5c35-15.6,56.6-46.5,56.6-81.6ZM941.7-3060.9c0,24.5-20.2,45.3-44.2,45.3h-66.1v-88.6h66c24,0,44.2,19.8,44.2,43.3h0Z"/>
    <path class="st5" d="M1266.9-2935.8c-4.1-3.3-9.9-3.2-13.8.3-16.9,13.1-36.4,25.2-65,25.2-52.3,0-94.9-44.1-94.9-98.3s42.4-98.7,94.5-98.7,47.1,9.5,65.1,25.3c2.1,2.4,5.1,3.8,8.3,3.7,2.7-.2,5.2-1.6,6.8-3.8l17-17.5c2.2-2.1,3.4-5.1,3.3-8.1-.1-3.1-1.5-6-3.9-8-29.7-25.9-59.5-37.4-96.9-37.4-79.7,0-144.5,65.3-144.5,145.4,0,79.8,64.7,144.5,144.5,144.7,36.4.4,71.4-13.7,97.4-39.2,2.3-2.3,3.5-5.5,3.4-8.7,0-2.6-1.2-5-3.1-6.8l-18.2-18Z"/>
    <path class="st5" d="M1504.1-2910.7h-102.3v-227.7c-.2-6-5-10.8-10.9-11h-25.8c-6,0-10.9,4.9-10.9,11v260.4c0,6.1,4.9,11,10.9,11h139.1c6.1,0,11-4.9,11-11h0v-21.6c0-6.1-4.8-11-10.9-11.1,0,0,0,0,0,0Z"/>
    <path class="st5" d="M1735.8-3105.3c6,0,10.9-4.9,10.9-11v-22c0-6-4.9-11-10.9-11h-156.2c-6,0-10.9,4.9-10.9,11v260.4c0,6.1,4.9,11,10.9,11h156.2c6.1,0,10.9-4.9,10.9-11v-21.6c0-6-4.9-11-10.9-11h-120v-77.7h100.8c6.1,0,11-4.9,11-11v-22c-.2-6-5-10.8-11-11h-100.7v-73.1h119.9Z"/>
  </g>
  <g>
    <path class="st5" d="M1037-2708.4c-24.9-21.2-71.4-21.5-95.8.6-37.3,33.7-37.1,123,5.8,152.4,21.6,14.8,58.4,15.5,81,2.5,16.3-9.4,26.5-26,32-43.7l34.6,9.3c-9.9,34.9-37,63.5-72.5,72.4-23.4,5.9-55.4,4.8-78-4.1-64.2-25.3-78.5-110.7-57.1-169.4,19.4-53.2,70.3-75.6,124.6-67,40.9,6.5,70.7,34.7,82.8,73.8l-1.6,1.5-32.5,8.6c-2.4-4.6-3.7-10.1-6-14.9-4.1-8.3-10.2-16.1-17.2-22.1Z"/>
    <path class="st5" d="M821.6-2730.5c10.7,9.6,19.8,23.1,25.5,36.3.8,1.9,4.6,11.4,4.4,12.6s-.2.9-.6,1.1l-33.2,9c-1.8-.6-1.3-2.4-1.8-3.8-11.3-29.7-29.8-46.7-62.7-48.9-52.1-3.5-78.9,32.5-81.6,81.1-3,53.9,19.1,101.3,79.5,99.3,30.8-1,52-16.8,63.3-45,.8-2.1,1.7-7.5,3.7-7.6,3.8,1.4,32.7,7.8,33.2,9.5.6,1.7-4.7,14-5.9,16.5-24.7,53-86.3,71.4-140,52.9-73.9-25.4-88.6-133.7-50.3-193.1,34.8-54,119.5-62.1,166.3-19.9Z"/>
    <path class="st5" d="M1334.8-2751.4l1.9-.9c35.6,2.1,74.9-3.3,109.9,1.2,51.3,6.5,71.5,58.4,56.4,104.2-19.5,59.1-83.2,44.1-131.7,45.9l-1.9.9v83c0,.7-1.7,1.3-2.4,1.4-6.3.9-22.5.5-29.2,0-1.1,0-2-.3-3-.6v-235ZM1369.5-2633.4h67.9c13.9,0,27.4-11.5,32-24.1,10.3-28.5-3.6-62.1-36.9-62.2h-63v86.3Z"/>
    <path class="st5" d="M1305.7-2720.3l-78.6,1.4v201.8c0,0-1.3,1.4-1.4,1.4h-32.4l-.8-.8v-202.3l-.8-.8h-77l-.8-.8v-30.2c0-.2.7-.8.5-1.4h190c0,0,1.4,1.3,1.4,1.4v30.5Z"/>
  </g>
  <g>
    <path class="st5" d="M2297.7-3064.9c-2.8-77.1,57.5-143,134.6-145.8h5.6c71.5,0,113.5,42,126.2,91.2l-44.9,15.4c-8.4-37.9-43.5-64.5-81.3-61.7-46.3,0-92.5,33.6-92.5,102.4s44.9,100.9,93.9,100.9,72.9-23.9,82.8-61.7l43.5,14c-15.4,57.5-68.7,95.4-127.6,92.5-77.1,1.4-140.2-60.3-141.7-136v-9.8l1.4-1.4h0Z"/>
    <path class="st5" d="M2652.5-2924.7h-46.3v-287.5h46.3v112.2c14-15.4,33.6-25.3,54.7-23.9,47.6,0,70.1,33.6,70.1,77.1v122h-44.9v-113.5c2.8-19.6-11.2-39.3-30.9-42h-8.4c-22.4,0-40.6,18.3-40.6,40.6h0v115Z"/>
    <path class="st5" d="M2881-3035.5l49.1-7c11.2-1.4,14-7,14-14,0-16.9-11.2-29.4-36.5-29.4-19.6-1.4-37.9,12.6-39.3,33.6h0c0,1.4-42-7-42-7,2.8-33.6,33.6-63.1,81.3-63.1s81.3,33.6,81.3,72.9v95.4c0,9.8,0,21,2.8,30.9h-42c-1.4-8.4-2.8-16.9-1.4-25.3-12.6,19.6-35,32.3-58.9,30.9-33.6,2.8-63.1-22.4-65.9-54.7v-2.8c0-35,25.3-54.7,57.5-58.9v-1.4h0ZM2944.2-3004.6v-8.4l-50.5,7c-14,0-25.3,12.6-25.3,26.6s11.2,25.3,25.3,25.3h2.8c23.9,2.8,44.9-15.4,47.6-39.3h0v-11.2h0Z"/>
    <path class="st5" d="M3067.6-3214.9c16.9,0,30.9,12.6,30.9,29.4h0c0,16.9-14,29.4-29.4,29.4s-29.4-14-29.4-29.4,12.6-29.4,29.4-29.4h-1.4,0ZM3045.1-2923.3v-193.5h46.3v193.5h-46.3Z"/>
    <path class="st5" d="M3196.5-2924.7h-46.3v-193.5h44.9v25.3c11.2-19.6,33.6-32.3,57.5-30.9,47.6,0,70.1,33.6,70.1,77.1v122h-46.3v-113.5c0-23.9-11.2-43.5-39.3-43.5s-40.6,18.3-40.6,40.6h0v116.4h0Z"/>
    <path class="st5" d="M3377.4-2924.7v-287.5h46.3v287.5h-46.3Z"/>
    <path class="st5" d="M3506.5-3214.9c16.9,0,29.4,12.6,29.4,29.4s-12.6,29.4-29.4,29.4-29.4-12.6-29.4-29.4h0c0-16.9,14-29.4,29.4-29.4ZM3482.6-2923.3v-193.5h44.9v193.5h-44.9Z"/>
    <path class="st5" d="M3634-2924.7h-46.3v-193.5h44.9v25.3c11.2-19.6,33.6-32.3,57.5-30.9,47.6,0,70.1,33.6,70.1,77.1v122h-46.3v-113.5c2.8-19.6-11.2-39.3-30.9-42h-8.4c-22.4,0-40.6,18.3-40.6,40.6v116.4-1.4h0Z"/>
    <path class="st5" d="M3917.2-3036.8l81.3,112.2h-56.1l-56.1-79.9-23.9,25.3v53.3h-44.9v-287.5h44.9v172.4l74.3-78.5h61.7l-79.9,81.3-1.4,1.4h0Z"/>
  </g>
  <g>
    <path class="st5" d="M2952.9-2746.7c-18.3,8-35.8,11.8-52.7,16.6-8.9-6.2-9.6-16.2-14.5-23.8-14.8-23-36.2-33.4-62.5-36.1-92.5-9.6-123.4,82.4-104,142.4,21.3,66,110.9,83.9,155.2,42.1,11.5-10.8,18.2-24.1,25.8-38.8,19.1,2.7,37.5,7.3,55.1,15.7-3.7,22.9-17.7,37.7-30,54.6-19.7,27.1-45.7,40.1-76.2,46.6-98.4,20.8-182.4-38.6-196.3-128.6-6.5-41.6-1.1-80.8,19.9-116,27.9-47,70.7-73.3,126.4-76.9,40.1-2.6,77.2,5,109.4,30.4,23.4,18.5,38.3,42,44.4,71.9h0Z"/>
    <path class="st5" d="M3279.8-2631.4c1.1,35.3-33.2,77.7-75.4,94-4.7,2.3-9.3,4-13.7,5.1h-.1c-29.1,11.4-73.2,10.1-102.2.7l-3.3-1c-.9-.3-1.8-.5-2.7-.7-4.7-1.1-5.3-1.1-12.3-4.1-53.2-23.5-83-65.1-90.2-121.7-3.3-25.4-2.9-51.6,4.2-77.1,19.1-68.8,86.5-113.3,149.4-113.1,46.5.1,87.1,11.5,119,47,13.9,15.4,24.1,32.9,28.9,54.6-16.8,9.5-35.6,12-51.7,17.6-8.9-1.5-7.4-8.5-9.8-12.8-17.3-31.5-42.8-46-79.6-47.7-47-2.1-86,31.1-93.8,68-10.8,51.3-4.6,97.3,39.7,125.5,45.6,29,107.9,14.1,134.4-33.1,2.2-3.9,3-8.7,10.5-13,6-2.3,14.3,2.3,22.9,4.9,8.6,2.6,17.4,4.7,25.8,7h0Z"/>
    <path class="st5" d="M3511.7-2646.5v116.3h-58.8v-309.6c8.4-5.1,16.2-3.7,23.7-3.7,31.3-.3,62.6-.9,93.9,0,31.5.9,59.6,10.2,80.6,35.8,25.6,31.1,26,66.4,14,101.1-10.5,30.2-34.9,47.7-67.2,55-27.9,6.4-56.1,1.1-86.2,5.1h0ZM3513.9-2789.9v88.8c23.6,3.4,45.5,3.3,67.1-1.8,20.6-4.9,31-21.2,30.3-44.8-.7-22.4-13.6-37.5-34.6-41.8-20.5-4.2-40.8,1-62.8-.5h0Z"/>
    <path class="st5" d="M3386.2-2529.9h-57.6v-311.6c19.4-4.4,37.9-2,57.6-1.3v312.9Z"/>
  </g>
  <path class="st5" d="M5364.8-3297.3c-18.5,32.2-52.8,52-89.9,52h-60.1v-202.4l-86.6,150.5c-18.5,32.2-52.8,52.1-89.9,52h-59.6v-298.8h119.9v201.9l116.2-201.8h0c0,0,119.9,0,119.9,0v202.8l126-218.8c5.1-8.9,4.9-19.9-.5-28.6-58.1-91.7-161.1-152.2-278.1-150.5-178.4,2.8-319,146.4-318.1,324.8.9,177.6,145.3,321.3,323.1,321.3s323.1-144.6,323.1-323.1-3.8-56.6-10.9-83.2c-1.3-5-6.4-7.9-11.4-6.6-2.4.6-4.4,2.2-5.7,4.3l-117.5,204.2s0,0,0,0Z"/>
  <path class="st5" d="M5687.6-2984h-82.8c-31.8,0-57.6,25-57.6,55.9v48.7c0,30.9,25.8,55.9,57.6,55.9h84.8c30.9-1.1,55.7-25.7,55.7-55.9v-48.7c0-30.9-25.8-55.9-57.6-55.9h0ZM5678.6-2850.1h-65v-107.2h65v107.2ZM4767.4-2984h-82.8c-31.8,0-57.6,25-57.6,55.9v48.7c0,30.9,25.8,55.9,57.6,55.9h84.8c30.9-1.1,55.7-25.7,55.7-55.9v-48.7c0-30.9-25.8-55.9-57.6-55.9h0ZM4758.5-2850.1h-65v-107.2h65v107.2ZM5231-2956.1l-48.1,80.9v-108.9h-33.3c-20.6,0-39.6,10.7-49.9,28l-69.7,117.2-30.7-51.6c22-.3,39.8-17.7,39.8-39.1v-15.3c0-21.6-18.1-39.2-40.3-39.2h-157.7v160.6h66.6v-67h14.9l39.8,67h89.3l64.8-109v109h66.6c0,0,64.5-108.6,64.5-108.6v108.6h66.6v-160.6h-33.1c-20.6,0-39.6,10.7-49.9,28h0ZM4972.6-2917.1h-65v-40.3h65v40.3ZM5464.1-2917.1h-65v-67h-66.6v160.6h66.6v-67h65v67h66.6v-160.6h-66.6v67ZM5828.2-2984h-66.6v104.7c0,30.9,25.8,55.9,57.6,55.9h94.8v-26.7h-85.9v-133.9ZM6112.8-2957.4v-26.7h-181.6v160.6h181.6v-26.7h-115.1v-40.3h91.1v-26.7h-91.1v-40.3h115.1ZM4608.6-2984l-64.8,109v-109h-66.6c0,0-64.5,108.6-64.5,108.6v-108.6h-66.6v160.6h33.1c20.6,0,39.6-10.7,49.9-28l48.1-80.9v108.9h33.3c20.6,0,39.6-10.7,49.9-28l78.9-132.6h-30.7Z"/>
</svg>