<svg viewBox="171 114 1210 365" fill="none" xmlns="http://www.w3.org/2000/svg">
<path d="M536.098 319.179L522.277 265.306C521.881 263.721 520.605 262.489 519.02 262.093L465.632 248.933C465.235 248.845 464.795 248.801 464.399 248.801C463.123 248.669 461.802 249.065 460.834 250.033L370.738 340.13L358.81 293.563C358.414 291.978 357.137 290.746 355.553 290.35L309.69 279.038L399.743 188.986C400.271 188.458 400.579 187.798 400.799 187.137C401.195 186.257 401.327 185.245 401.063 184.276L387.243 130.403C386.847 128.819 385.57 127.586 383.986 127.19L330.597 114.03C329.541 113.766 328.484 113.942 327.56 114.382H327.516C327.252 114.514 327.032 114.69 326.768 114.866C326.548 115.043 326.24 115.131 326.064 115.351L172.367 268.959C172.367 268.959 172.103 269.399 171.927 269.619C170.959 270.764 170.607 272.26 171.047 273.713L185.967 325.781C186.408 327.278 187.552 328.422 189.004 328.818L239.004 343.167L253.353 393.122C253.793 394.619 254.937 395.763 256.39 396.159L306.565 410.552L320.958 460.728C321.398 462.224 322.542 463.369 323.995 463.765L376.283 478.773C376.68 478.905 377.12 478.949 377.516 478.949C377.604 478.949 377.692 478.905 377.824 478.905C377.824 478.905 377.868 478.905 377.912 478.905C379.056 478.905 380.201 478.465 381.081 477.585L534.821 323.844C535.35 323.316 535.658 322.656 535.878 321.996C536.274 321.116 536.406 320.103 536.142 319.135L536.098 319.179ZM467.172 378.906L455.949 335.112L480.816 310.288L523.554 322.568L467.216 378.95L467.172 378.906ZM379.981 466.097L368.757 422.304L413.739 377.321L456.477 389.601L379.981 466.097ZM414.664 363.809L403.924 326.397L442.524 335.904L414.664 363.765V363.809ZM448.642 342.418L458.501 380.842L420.958 370.059L448.642 342.374V342.418ZM449.919 328.554L406.169 317.771L462.375 261.565L474.522 303.95L449.919 328.554ZM395.297 328.598L407.445 370.983L362.683 415.745L318.933 404.962L395.297 328.598ZM514.311 270.015L525.534 313.809L483.105 301.617L470.957 259.32L514.311 270.015ZM312.331 398.448L301.108 354.654L317.305 338.457L360.042 350.737L312.331 398.448ZM318.229 324.945L307.49 287.533L346.09 297.04L318.229 324.901V324.945ZM362.067 342.022L324.523 331.239L352.208 303.554L362.067 341.978V342.022ZM311.055 332.163L295.078 348.14L251.328 337.357L298.907 289.778L311.055 332.163ZM260.703 193.211L272.851 235.597L227.693 280.755L183.943 269.971L260.703 193.211ZM327.384 126.53L339.532 168.916L315.324 193.123L271.574 182.34L327.384 126.53ZM332.578 243.475L321.354 199.725L345.826 175.254L388.563 187.489L332.578 243.475ZM280.069 228.422L269.33 191.011L307.93 200.518L280.069 228.378V228.422ZM314.048 207.032L323.907 245.456L286.407 234.672L314.092 206.988L314.048 207.032ZM279.189 241.891L321.926 254.126L245.034 331.019L233.811 287.269L279.189 241.891ZM379.32 135.069L390.544 178.863L348.115 166.671L335.967 124.373L379.32 135.069ZM181.742 278.642L220.342 288.149L192.481 316.01L181.742 278.598V278.642ZM198.775 322.348L226.46 294.663L236.319 333.087L198.819 322.304L198.775 322.348ZM261.231 388.325L249.083 346.027L292.437 356.723L303.661 400.517L261.231 388.325ZM316.733 413.633L355.333 423.14L327.472 451.001L316.733 413.589V413.633ZM333.766 457.339L361.451 429.654L371.31 468.078L333.766 457.295V457.339Z" fill="#FAF8F0"/>
<path d="M670.466 376.534C656.337 376.534 644.057 373.717 633.494 368.083C622.975 362.449 614.788 354.791 609.022 345.02C603.212 335.293 600.352 324.069 600.352 311.393C600.352 298.717 603.168 287.494 608.802 277.767C614.436 268.04 622.182 260.337 632.086 254.703C641.989 249.07 653.256 246.253 665.976 246.253C678.696 246.253 689.348 248.982 699.031 254.439C708.714 259.897 716.284 267.555 721.83 277.371C727.376 287.186 730.148 298.849 730.148 312.318C730.148 313.418 730.148 314.826 730.016 316.499C729.928 318.171 729.84 319.624 729.664 320.9H623.899V301.182H713.995L702.112 307.344C702.288 300.214 700.791 293.832 697.71 288.198C694.629 282.564 690.36 278.207 684.99 275.126C679.621 272.045 673.239 270.504 665.976 270.504C658.714 270.504 652.464 272.045 646.83 275.126C641.196 278.207 636.883 282.608 633.89 288.33C630.897 294.052 629.357 300.61 629.357 308.048V312.802C629.357 320.416 631.073 327.15 634.462 333.004C637.851 338.858 642.737 343.435 649.075 346.648C655.413 349.905 662.763 351.534 671.17 351.534C678.3 351.534 684.726 350.346 690.404 347.969C696.126 345.592 701.187 342.115 705.633 337.494L721.786 356.023C715.932 362.669 708.67 367.775 700.043 371.252C691.416 374.729 681.557 376.49 670.466 376.49V376.534Z" fill="#FAF8F0"/>
<path d="M729.887 272.663V248.895H814.481V272.663H729.887ZM794.543 376.536C780.591 376.536 769.807 372.927 762.237 365.708C754.622 358.49 750.837 347.927 750.837 333.974V219.89H780.327V333.006C780.327 339.036 781.911 343.701 785.08 347.046C788.249 350.391 792.694 352.02 798.372 352.02C804.886 352.02 810.256 350.259 814.525 346.782L823.064 367.953C819.411 370.814 815.054 372.927 809.992 374.379C804.93 375.787 799.781 376.536 794.543 376.536Z" fill="#FAF8F0"/>
<path d="M905.289 246.297C915.588 246.297 924.655 248.278 932.489 252.239C940.324 256.2 946.574 262.318 951.283 270.549C955.949 278.78 958.281 289.343 958.281 302.151V374.862H928.572V305.936C928.572 294.669 925.975 286.306 920.737 280.76C915.5 275.214 908.061 272.442 898.378 272.442C891.424 272.442 885.218 273.85 879.849 276.711C874.479 279.572 870.298 283.797 867.393 289.431C864.444 295.065 862.991 302.151 862.991 310.69V374.862H833.502V198.498H862.991V282.389L856.829 271.693C861.099 263.595 867.481 257.345 875.975 252.899C884.47 248.454 894.241 246.253 905.333 246.253L905.289 246.297Z" fill="#FAF8F0"/>
<path d="M1039.13 376.534C1025 376.534 1012.72 373.717 1002.16 368.084C991.639 362.45 983.452 354.791 977.686 345.02C971.877 335.293 969.016 324.07 969.016 311.394C969.016 298.718 971.833 287.494 977.466 277.767C983.1 268.04 990.846 260.338 1000.75 254.704C1010.65 249.07 1021.92 246.253 1034.64 246.253C1047.36 246.253 1058.01 248.982 1067.69 254.44C1077.38 259.897 1084.95 267.556 1090.49 277.371C1096.04 287.186 1098.81 298.85 1098.81 312.318C1098.81 313.418 1098.81 314.827 1098.68 316.499C1098.59 318.172 1098.5 319.624 1098.33 320.901H992.563V301.183H1082.66L1070.78 307.344C1070.95 300.214 1069.46 293.832 1066.37 288.198C1063.29 282.565 1059.02 278.207 1053.65 275.126C1048.28 272.045 1041.9 270.505 1034.64 270.505C1027.38 270.505 1021.13 272.045 1015.49 275.126C1009.86 278.207 1005.55 282.609 1002.55 288.33C999.561 294.052 998.021 300.61 998.021 308.049V312.802C998.021 320.417 999.737 327.151 1003.13 333.005C1006.52 338.858 1011.4 343.436 1017.74 346.649C1024.08 349.906 1031.43 351.534 1039.83 351.534C1046.96 351.534 1053.39 350.346 1059.07 347.969C1064.79 345.593 1069.85 342.115 1074.3 337.494L1090.45 356.024C1084.6 362.67 1077.33 367.776 1068.71 371.253C1060.08 374.73 1050.22 376.49 1039.13 376.49V376.534Z" fill="#FAF8F0"/>
<path d="M1112.06 374.859V247.923H1140.36V282.87L1137.01 272.659C1140.66 264.12 1146.61 257.562 1154.84 253.073C1163.07 248.54 1173.15 246.295 1185.03 246.295V274.596C1183.93 274.42 1182.83 274.332 1181.69 274.244C1180.59 274.156 1179.53 274.112 1178.6 274.112C1167.21 274.112 1158.18 277.369 1151.49 283.839C1144.85 290.353 1141.5 300.256 1141.5 313.548V374.859H1112.01H1112.06Z" fill="#FAF8F0"/>
<path d="M1240.88 272.661V248.893H1325.47V272.661H1240.88ZM1261.79 374.861V241.059C1261.79 227.591 1265.7 216.851 1273.54 208.841C1281.37 200.83 1292.6 196.825 1307.16 196.825C1312.4 196.825 1317.33 197.397 1322.04 198.498C1326.71 199.598 1330.62 201.358 1333.79 203.735L1325.47 225.83C1323.4 224.422 1320.94 223.233 1318.12 222.265C1315.26 221.297 1312.36 220.857 1309.32 220.857C1303.16 220.857 1298.45 222.573 1295.28 225.962C1292.11 229.351 1290.53 234.413 1290.53 241.059V255.804L1291.23 268.876V374.861H1261.74H1261.79ZM1361.39 227.019C1355.84 227.019 1351.31 225.258 1347.74 221.781C1344.18 218.304 1342.42 214.034 1342.42 208.929C1342.42 204.175 1344.18 200.038 1347.74 196.561C1351.31 193.084 1355.84 191.323 1361.39 191.323C1366.93 191.323 1371.47 192.952 1375.08 196.209C1378.64 199.466 1380.4 203.603 1380.4 208.665C1380.4 213.726 1378.64 218.04 1375.17 221.605C1371.69 225.17 1367.07 226.974 1361.39 226.974V227.019ZM1346.64 374.861V247.925H1376.13V374.861H1346.64Z" fill="#FAF8F0"/>
<path d="M1220.34 369.974L1208.55 350.476C1207.67 349.068 1206.13 348.187 1204.5 348.187H1204.41C1202.74 348.187 1201.15 349.156 1200.32 350.652L1189.36 370.458C1187.86 373.187 1187.86 376.488 1189.36 379.217L1200.36 399.067C1201.2 400.564 1202.74 401.488 1204.46 401.532H1204.5C1206.17 401.532 1207.76 400.652 1208.59 399.2L1220.34 379.305C1222.06 376.444 1222.02 372.879 1220.34 370.018V369.974Z" fill="#FAF8F0"/>
</svg>
