<svg viewBox="7 11 183 56" fill="none" xmlns="http://www.w3.org/2000/svg">
<path d="M35.0762 11.5153C33.2332 10.4373 30.9639 10.4373 29.1209 11.5153L19.6779 17.0285C16.9515 18.6301 16.9515 22.6187 19.6779 24.2049L36.4012 33.9377C37.5588 34.6153 38.2746 35.8473 38.2746 37.2025V54.4813C38.2746 55.8211 37.5588 57.0685 36.4165 57.7461L33.9643 59.1783C32.8068 59.8559 31.3903 59.8559 30.2328 59.1783L15.4285 50.5389C14.2709 49.8613 13.5703 48.6293 13.5703 47.2741V38.6193L32.1062 49.4301V44.3943C32.1062 43.0545 31.3903 41.8071 30.248 41.1295L7.40186 27.7931V49.5533C7.40186 51.7093 8.54416 53.6959 10.3871 54.7739L29.1362 65.7233C30.9791 66.8013 33.2485 66.8013 35.0914 65.7233L41.4883 61.9965C43.3312 60.9185 44.4735 58.9319 44.4735 56.7759V34.8925C44.4735 32.7365 43.3312 30.7499 41.4883 29.6719L27.6283 21.5869C26.882 21.1557 26.882 20.0623 27.6283 19.6311L30.248 18.1065C31.3903 17.4443 32.8068 17.4443 33.9643 18.1065L48.7686 26.7151C49.9262 27.3927 50.642 28.6247 50.642 29.9799V49.3377L56.8257 45.7341V27.6699C56.8257 25.5139 55.6834 23.5273 53.8405 22.4493L35.0762 11.5153Z" fill="white"/>
<path d="M80.6619 38.1111C80.6619 38.1111 79.5349 37.5567 79.3216 37.4643C79.1084 37.3565 78.8495 37.2641 78.5753 37.1871C78.3012 37.1101 77.9661 37.0639 77.5853 37.0639C76.9913 37.0639 76.5344 37.1871 76.1993 37.4489C75.8642 37.7107 75.6967 38.0341 75.6967 38.4499C75.6967 38.7271 75.7881 38.9427 75.9556 39.1275C76.1232 39.3123 76.3669 39.4663 76.6562 39.6203C76.9456 39.7589 77.2655 39.8821 77.631 39.9899C77.9965 40.0977 78.3621 40.2209 78.7428 40.3595C79.1236 40.4827 79.4892 40.6367 79.8547 40.8061C80.2202 40.9755 80.5401 41.1911 80.8295 41.4529C81.1189 41.7147 81.3473 42.0227 81.5301 42.3769C81.6976 42.7311 81.789 43.1777 81.789 43.6859C81.789 44.2865 81.6824 44.8563 81.4692 45.3645C81.2559 45.8727 80.9361 46.3193 80.5096 46.6889C80.0832 47.0585 79.5653 47.3511 78.9409 47.5667C78.3164 47.7823 77.6005 47.8593 76.7933 47.8593C76.3669 47.8593 75.9404 47.8131 75.5292 47.7361C75.1179 47.6591 74.7219 47.5513 74.3564 47.4127C73.9756 47.2741 73.6253 47.1047 73.3055 46.9199C72.9856 46.7351 72.6962 46.5349 72.4678 46.3039L73.671 44.3789C73.671 44.3789 74.8285 45.1027 75.057 45.2259C75.2702 45.3491 75.5292 45.4569 75.8338 45.5647C76.1384 45.6725 76.5039 45.7187 76.9609 45.7187C77.3112 45.7187 77.631 45.6725 77.8747 45.5955C78.1184 45.5185 78.3469 45.3953 78.5144 45.2567C78.6819 45.1181 78.8038 44.9487 78.8799 44.7639C78.9561 44.5791 79.0018 44.3943 79.0018 44.1941C79.0018 43.9015 78.9104 43.6551 78.7428 43.4703C78.5753 43.2855 78.3316 43.1161 78.0422 42.9775C77.7529 42.8389 77.433 42.7157 77.0522 42.6079C76.6867 42.5001 76.3059 42.3769 75.9252 42.2383C75.5444 42.1151 75.1636 41.9611 74.7981 41.7763C74.4325 41.6069 74.0975 41.3759 73.8081 41.0987C73.5187 40.8215 73.2902 40.4981 73.1075 40.0977C72.9399 39.7127 72.8485 39.2353 72.8485 38.6655C72.8485 38.1419 72.9552 37.6491 73.1532 37.1871C73.3512 36.7251 73.6558 36.3093 74.0518 35.9705C74.4478 35.6163 74.9352 35.3391 75.5292 35.1389C76.1232 34.9233 76.7933 34.8309 77.5701 34.8309C78.423 34.8309 79.215 34.9695 79.9156 35.2621C80.6162 35.5547 81.2102 35.9243 81.6824 36.4017L80.6619 38.1111Z" fill="white"/>
<path d="M90.0288 47.8593C88.9475 47.8593 88.1098 47.5513 87.531 46.9353C86.9522 46.3193 86.6628 45.4569 86.6628 44.3635V37.3103H84.8047V35.1389H86.8151L87.4548 31.6893C87.5005 31.5199 87.5767 31.3967 87.6833 31.3043C87.8051 31.2119 87.9422 31.1657 88.125 31.1657H89.6785V35.1389H93.0141V37.3103H89.6785V44.1479C89.6785 44.5483 89.7699 44.8563 89.9679 45.0719C90.1507 45.2875 90.4248 45.4107 90.7447 45.4107C90.9275 45.4107 91.095 45.3953 91.2168 45.3491C91.3387 45.3029 92.1764 44.8717 92.1764 44.8717L93.3187 46.7351C92.877 47.1047 92.3744 47.3819 91.8108 47.5667C91.2321 47.7669 90.6381 47.8593 90.0288 47.8593Z" fill="white"/>
<path d="M96.4562 36.8021C97.8879 35.4777 99.6242 34.8155 101.635 34.8155C102.366 34.8155 103.021 34.9387 103.599 35.1851C104.178 35.4315 104.666 35.7703 105.062 36.1861C105.458 36.6019 105.762 37.1255 105.96 37.7261C106.158 38.3267 106.265 38.9735 106.265 39.6973V47.6745H103.341V46.3655C103.143 46.5349 102.899 46.7197 102.701 46.8583C102.396 47.0739 102.092 47.2587 101.757 47.4127C101.421 47.5667 101.086 47.6745 100.721 47.7515C100.355 47.8285 99.9441 47.8593 99.4872 47.8593C98.9541 47.8593 98.4667 47.7823 98.025 47.6437C97.5833 47.5051 97.1873 47.2895 96.8675 46.9969C96.5476 46.7043 96.2887 46.3501 96.1059 45.9343C95.9232 45.5031 95.8318 45.0103 95.8318 44.4405C95.8318 44.1171 95.8775 43.8091 95.9841 43.4857C96.0907 43.1777 96.2582 42.8697 96.5019 42.5771C96.7456 42.2845 97.0502 42.0227 97.431 41.7609C97.8118 41.4991 98.2839 41.2835 98.8323 41.0987C99.3806 40.9139 100.035 40.7599 100.767 40.6367C101.513 40.5135 102.351 40.4519 103.295 40.4211V39.6819C103.295 38.8349 103.112 38.2189 102.762 37.8031C102.411 37.3873 101.894 37.1871 101.223 37.1871C100.736 37.1871 100.34 37.2487 100.02 37.3565C99.7004 37.4643 99.411 37.6029 99.1826 37.7415C98.9389 37.8801 97.8423 38.5269 97.6443 38.6347L96.4562 36.8021ZM103.341 42.2691C102.472 42.3153 101.741 42.3923 101.147 42.5001C100.553 42.6079 100.081 42.7465 99.7309 42.9313C99.3806 43.1007 99.1216 43.3009 98.9693 43.5319C98.817 43.7629 98.7409 44.0093 98.7409 44.2865C98.7409 44.8255 98.8932 45.1951 99.213 45.4261C99.5329 45.6571 99.9289 45.7649 100.431 45.7649C101.041 45.7649 101.574 45.6571 102.031 45.4261C102.488 45.1951 102.914 44.8563 103.356 44.3943V42.2691H103.341Z" fill="white"/>
<path d="M127.42 41.7301C127.466 42.3769 127.588 42.9313 127.755 43.4087C127.938 43.8861 128.167 44.2711 128.456 44.5791C128.745 44.8871 129.096 45.1181 129.492 45.2721C129.888 45.4261 130.345 45.5031 130.832 45.5031C131.319 45.5031 131.731 45.4415 132.096 45.3337C132.446 45.2259 132.751 45.0873 133.025 44.9487C133.284 44.8101 134.274 44.2711 134.472 44.1633L135.721 45.7957C135.386 46.1807 135.02 46.5195 134.594 46.7813C134.168 47.0431 133.756 47.2587 133.299 47.4281C132.842 47.5821 132.386 47.7053 131.929 47.7669C131.456 47.8285 131.015 47.8593 130.573 47.8593C129.705 47.8593 128.898 47.7207 128.151 47.4281C127.405 47.1355 126.75 46.7043 126.202 46.1345C125.654 45.5647 125.212 44.8563 124.907 44.0247C124.587 43.1777 124.435 42.2075 124.435 41.0987C124.435 40.2363 124.572 39.4355 124.846 38.6655C125.12 37.9109 125.516 37.2487 126.034 36.6789C126.552 36.1245 127.177 35.6779 127.923 35.3391C128.669 35.0003 129.507 34.8463 130.436 34.8463C131.228 34.8463 131.944 34.9695 132.614 35.2313C133.284 35.4931 133.848 35.8627 134.335 36.3401C134.807 36.8329 135.188 37.4335 135.462 38.1419C135.736 38.8503 135.873 39.6665 135.873 40.5751C135.873 41.0371 135.873 41.7455 135.873 41.7455H127.42V41.7301ZM133.147 39.8975C133.147 39.5125 133.086 39.1275 132.98 38.7887C132.873 38.4345 132.705 38.1419 132.492 37.8801C132.279 37.6183 131.99 37.4181 131.654 37.2641C131.319 37.1101 130.923 37.0331 130.482 37.0331C129.614 37.0331 128.928 37.2795 128.426 37.7877C127.923 38.2959 127.603 39.0043 127.466 39.9129H133.147V39.8975Z" fill="white"/>
<path d="M150.571 29.3793V47.6591H147.571V29.3793H150.571Z" fill="white"/>
<path d="M158.522 35.0465V47.6591H155.506V35.0465H158.522Z" fill="white"/>
<path d="M166.411 36.4017C166.609 36.2169 166.807 36.0475 167.02 35.8781C167.294 35.6625 167.599 35.4777 167.904 35.3237C168.208 35.1697 168.543 35.0465 168.909 34.9695C169.259 34.8771 169.655 34.8463 170.082 34.8463C170.767 34.8463 171.361 34.9695 171.894 35.2005C172.427 35.4315 172.869 35.7549 173.219 36.1861C173.569 36.6173 173.844 37.1101 174.026 37.6953C174.209 38.2805 174.301 38.9273 174.301 39.6357V47.6745H171.3V39.6357C171.3 38.8657 171.133 38.2651 170.782 37.8493C170.432 37.4335 169.899 37.2179 169.183 37.2179C168.665 37.2179 168.178 37.3411 167.721 37.5721C167.264 37.8185 166.837 38.1419 166.426 38.5423V47.6745H163.426V35.0619H166.426L166.411 36.4017Z" fill="white"/>
<path d="M181.962 29.3793V39.8513H182.525C182.723 39.8513 182.891 39.8205 183.013 39.7743C183.135 39.7281 183.256 39.6203 183.378 39.4509L186.897 35.0465H190.278L186.394 39.7281C186.12 40.0977 185.815 40.3749 185.495 40.5751C185.663 40.6983 185.815 40.8369 185.952 41.0063C186.089 41.1757 186.211 41.3451 186.333 41.5299L190.491 47.6591H187.11L183.561 42.3307C183.454 42.1459 183.333 42.0227 183.211 41.9611C183.089 41.8995 182.906 41.8687 182.662 41.8687H181.977V47.6437H178.977V29.3793H181.962Z" fill="white"/>
<path d="M113.926 29.3793V39.8513H114.489C114.687 39.8513 114.855 39.8205 114.977 39.7743C115.099 39.7281 115.22 39.6203 115.342 39.4509L118.861 35.0465H122.242L118.358 39.7281C118.084 40.0977 117.779 40.3749 117.459 40.5751C117.627 40.6983 117.779 40.8369 117.916 41.0063C118.053 41.1757 118.175 41.3451 118.297 41.5299L122.455 47.6591H119.074L115.525 42.3307C115.418 42.1459 115.297 42.0227 115.175 41.9611C115.053 41.8995 114.87 41.8687 114.626 41.8687H113.926V47.6437H110.925V29.3793H113.926Z" fill="white"/>
<path d="M158.506 29.3793H155.491V32.4285H158.506V29.3793Z" fill="white"/>
<path d="M142.834 44.7947H139.818V47.8439H142.834V44.7947Z" fill="white"/>
</svg>
