<svg width="148" height="36" viewBox="0 0 148 36" fill="none" xmlns="http://www.w3.org/2000/svg">
<path d="M134.73 35.52C130.378 35.52 126.906 34.528 124.314 32.544C121.754 30.528 120.25 27.696 119.802 24.048H125.802C126.09 26.16 127.034 27.808 128.634 28.992C130.234 30.144 132.33 30.72 134.922 30.72C137.066 30.72 138.698 30.336 139.818 29.568C140.97 28.768 141.546 27.664 141.546 26.256C141.546 25.008 141.194 24 140.49 23.232C139.786 22.464 138.602 21.84 136.938 21.36L130.698 19.488C127.53 18.528 125.194 17.264 123.69 15.696C122.218 14.128 121.482 12.16 121.482 9.792C121.482 7.808 121.994 6.08 123.018 4.608C124.042 3.136 125.482 2 127.338 1.2C129.226 0.4 131.418 0 133.914 0C137.754 0 140.81 0.943999 143.082 2.832C145.386 4.688 146.698 7.216 147.018 10.416H141.018C140.666 8.496 139.866 7.088 138.618 6.192C137.37 5.264 135.69 4.8 133.578 4.8C131.722 4.8 130.25 5.168 129.162 5.904C128.074 6.64 127.53 7.648 127.53 8.928C127.53 9.984 127.85 10.88 128.49 11.616C129.162 12.352 130.394 12.992 132.186 13.536L138.522 15.456C141.69 16.384 143.994 17.648 145.434 19.248C146.874 20.848 147.594 22.88 147.594 25.344C147.594 28.608 146.458 31.12 144.186 32.88C141.946 34.64 138.794 35.52 134.73 35.52Z" fill="#1C76FF"/>
<path d="M86.9437 35.088L99.6637 0.528015H105.04L93.0877 35.088H86.9437ZM113.008 35.088L101.104 0.528015H106.768L119.44 35.088H113.008ZM93.5197 21.504H112.432V26.496H93.5197V21.504Z" fill="#1C76FF"/>
<path d="M61.4383 35.088V0.528015H67.6783V35.088H61.4383ZM64.4143 35.088V30.144H84.6703V35.088H64.4143Z" fill="#1C76FF"/>
<path d="M40.2033 35.088V5.47202H28.7312V0.528015H57.9153V5.47202H46.4432V35.088H40.2033Z" fill="#1C76FF"/>
<path d="M0 35.088L12.72 0.528015H18.096L6.144 35.088H0ZM26.064 35.088L14.16 0.528015H19.824L32.496 35.088H26.064ZM6.576 21.504H25.488V26.496H6.576V21.504Z" fill="#1C76FF"/>
</svg>
